<?xml version="1.0" encoding="UTF-8"?><svg id="Layer_2" xmlns="http://www.w3.org/2000/svg" viewBox="0 0 1359.839 817"><defs><style>.cls-1{fill:#00bcd4;}</style></defs><path class="cls-1" d="m342.91,236c17.953-35.064,41.208-66.978,69.37-95.14,34.766-34.766,75.245-62.059,120.314-81.122,46.654-19.733,96.222-29.738,147.325-29.738s100.671,10.005,147.325,29.738c45.069,19.063,85.549,46.356,120.314,81.122,28.162,28.162,51.418,60.076,69.371,95.14h33.357c-20.15-43.251-47.507-82.347-81.514-116.353-37.512-37.511-81.196-66.963-129.842-87.539C788.559,10.803,735.06,0,679.92,0s-108.64,10.803-159.012,32.108c-48.646,20.576-92.33,50.028-129.841,87.539-34.007,34.006-61.364,73.102-81.514,116.353h33.357Z"/><path class="cls-1" d="m1048.98,493c-4.887,21.423-11.66,42.403-20.298,62.825-19.062,45.07-46.356,85.549-81.122,120.315s-75.245,62.06-120.314,81.122c-46.654,19.733-96.222,29.738-147.325,29.738s-100.671-10.005-147.325-29.738c-45.069-19.062-85.549-46.356-120.314-81.122-34.766-34.766-62.059-75.245-81.122-120.315-8.638-20.422-15.411-41.402-20.298-62.825h-30.707c5.354,25.447,13.152,50.34,23.375,74.512,20.576,48.646,50.028,92.33,87.539,129.842,37.511,37.511,81.196,66.963,129.841,87.538,50.372,21.306,103.871,32.108,159.012,32.108s108.64-10.803,159.012-32.108c48.646-20.575,92.33-50.027,129.842-87.538,37.511-37.512,66.963-81.196,87.538-129.842,10.224-24.171,18.022-49.064,23.375-74.512h-30.707Z"/><rect x="667.009" y="317.159" width="18.27" height="149.625"/><path d="m611.097,250.537c-7.772,0-14.754,1.444-20.948,4.331-6.196,2.889-11.079,7.378-14.647,13.466-3.57,6.091-5.354,13.86-5.354,23.311v25.672h-25.516v13.23h25.516v136.237h18.112v-136.237h32.76v-13.23h-32.76v-25.515c0-7.454,1.26-13.072,3.78-16.853,2.52-3.78,5.615-6.352,9.292-7.718,3.675-1.363,7.297-2.047,10.868-2.047,2.938,0,6.036.342,9.292,1.023,3.254.684,6.561,1.708,9.923,3.071l3.465-14.963c-3.992-1.363-7.98-2.335-11.97-2.913-3.992-.576-7.93-.866-11.812-.866Z"/><path d="m685.751,256.601c-2.311-2.151-5.512-3.229-9.607-3.229-3.886,0-7.035,1.077-9.45,3.229-2.416,2.153-3.622,5.016-3.622,8.584,0,3.676,1.206,6.721,3.622,9.135,2.415,2.416,5.564,3.622,9.45,3.622,4.096,0,7.297-1.206,9.607-3.622,2.309-2.414,3.465-5.459,3.465-9.135,0-3.568-1.156-6.431-3.465-8.584Z"/><path d="m82.216,470.249c-17.117,0-31.816-4.435-44.101-13.309-12.285-8.872-21.71-20.999-28.271-36.383-6.563-15.381-9.844-32.941-9.844-52.684,0-21.42,3.647-39.453,10.946-54.102,7.297-14.647,17.167-25.751,29.61-33.311,12.442-7.561,26.327-11.34,41.659-11.34,19.844,0,36.039,5.04,48.588,15.119,12.547,10.08,21.498,23.153,26.854,39.218l-19.844,4.41c-4.41-13.124-11.576-23.492-21.5-31.106-9.922-7.611-21.289-11.419-34.098-11.419-11.025,0-21.291,3.126-30.791,9.372-9.505,6.248-17.168,15.514-22.996,27.799-5.827,12.284-8.741,27.404-8.741,45.359,0,16.065,2.23,30.582,6.694,43.549,4.462,12.969,11.313,23.259,20.553,30.87,9.238,7.614,21,11.419,35.281,11.419,16.797,0,30.264-4.514,40.398-13.545,10.131-9.029,15.199-21.051,15.199-36.067h20.316c0,13.65-3.256,25.411-9.766,35.279-6.51,9.871-15.488,17.482-26.932,22.838-11.445,5.354-24.518,8.032-39.217,8.032Z"/><path d="m257.984,470.249c-13.336,0-25.097-2.992-35.28-8.978-10.186-5.984-18.191-14.805-24.019-26.46-5.828-11.655-8.741-25.934-8.741-42.84s2.913-31.158,8.741-42.762c5.827-11.601,13.833-20.396,24.019-26.381,10.184-5.985,21.944-8.978,35.28-8.978s25.094,2.992,35.279,8.978c10.184,5.985,18.164,14.78,23.94,26.381,5.773,11.604,8.662,25.857,8.662,42.762s-2.889,31.185-8.662,42.84c-5.776,11.655-13.757,20.476-23.94,26.46-10.186,5.985-21.946,8.978-35.279,8.978Zm-.315-15.907c11.025,0,20.212-2.599,27.562-7.796,7.349-5.198,12.836-12.468,16.459-21.814,3.622-9.344,5.434-20.263,5.434-32.76,0-18.794-4.017-33.914-12.049-45.36-8.032-11.443-20.293-17.167-36.776-17.167-11.024,0-20.187,2.599-27.483,7.796-7.299,5.197-12.758,12.497-16.38,21.893-3.623,9.398-5.434,20.345-5.434,32.839,0,18.69,4.016,33.759,12.048,45.202,8.033,11.446,20.239,17.168,36.619,17.168Z"/><path d="m494.391,343.855c-4.621-9.711-11.157-17.141-19.608-22.286-8.453-5.144-18.454-7.718-30.004-7.718-13.021,0-23.915,3.283-32.681,9.844-8.167,6.113-14.463,14.595-18.895,25.443l-2.448-31.822h-15.435v149.468h18.27v-72.607c0-12.915,1.863-24.201,5.592-33.862,3.726-9.659,9.135-17.168,16.223-22.522,7.087-5.355,15.514-8.033,25.278-8.033,13.333,0,23.807,4.201,31.421,12.601,7.612,8.401,11.419,20.529,11.419,36.382v88.043h17.798v-88.043c0-13.545-2.311-25.173-6.931-34.886Z"/><path d="m854.274,252.584v89.476c-4.61-8.634-10.741-15.401-18.427-20.254-8.402-5.301-18.01-7.954-28.823-7.954-11.654,0-22.392,3.126-32.208,9.371-9.819,6.249-17.694,15.175-23.625,26.775-5.934,11.604-8.899,25.437-8.899,41.501s2.993,29.979,8.978,41.737c5.985,11.761,13.99,20.869,24.019,27.326,10.026,6.458,20.973,9.687,32.839,9.687,10.289,0,19.555-2.599,27.799-7.796,7.944-5.009,14.261-12.211,18.988-21.562l2.038,25.893h15.436v-214.2h-18.113Zm-23.467,195.772c-6.827,3.78-13.914,5.67-21.263,5.67-8.611,0-16.592-2.466-23.94-7.402-7.351-4.934-13.229-12.073-17.64-21.42-4.41-9.344-6.615-20.578-6.615-33.705,0-13.019,2.229-24.098,6.694-33.232,4.461-9.135,10.341-16.168,17.64-21.104,7.297-4.935,15.198-7.403,23.704-7.403,7.769,0,15.065,1.891,21.892,5.67,6.824,3.78,12.364,9.372,16.617,16.774,4.252,7.402,6.378,16.616,6.378,27.641v24.413c0,10.815-2.205,19.924-6.614,27.326-4.41,7.402-10.028,12.994-16.853,16.773Z"/><path d="m1045.554,364.725c-1.944-9.659-5.276-18.322-10.001-25.988-4.726-7.663-10.946-13.727-18.664-18.19-7.718-4.462-17.089-6.694-28.113-6.694-13.127,0-24.649,3.15-34.571,9.45-9.923,6.3-17.694,15.332-23.311,27.09-5.618,11.761-8.426,25.83-8.426,42.21,0,15.017,2.835,28.377,8.505,40.084,5.67,11.709,13.466,20.896,23.389,27.562s21.393,10.001,34.414,10.001c10.395,0,19.738-1.865,28.034-5.591,8.294-3.727,15.145-9.108,20.554-16.144,5.407-7.034,8.899-15.539,10.475-25.516h-19.53c-1.366,10.501-5.54,18.455-12.521,23.861-6.984,5.409-15.986,8.111-27.011,8.111-10.71,0-19.609-2.678-26.696-8.032-7.088-5.355-12.392-12.601-15.908-21.735-3.486-9.05-5.238-19.236-5.27-30.555h106.937c.418-10.289-.343-20.264-2.284-29.925Zm-99.383-6.222c3.517-8.766,8.845-15.907,15.986-21.42,7.14-5.513,16.065-8.269,26.775-8.269,8.399,0,15.277,1.732,20.633,5.197,5.354,3.465,9.528,8.032,12.521,13.702,2.993,5.67,5.04,11.892,6.143,18.664.848,5.208,1.272,10.432,1.282,15.671h-88.476c.459-8.278,2.16-16.13,5.136-23.546Z"/><path d="m1216.989,343.855c-4.621-9.711-11.157-17.141-19.608-22.286-8.453-5.144-18.454-7.718-30.004-7.718-13.021,0-23.915,3.283-32.681,9.844-8.167,6.113-14.463,14.595-18.894,25.443l-2.448-31.822h-15.435v149.468h18.27v-72.607c0-12.915,1.863-24.201,5.592-33.862,3.726-9.659,9.135-17.168,16.223-22.522,7.087-5.355,15.514-8.033,25.278-8.033,13.333,0,23.807,4.201,31.421,12.601,7.612,8.401,11.419,20.529,11.419,36.382v88.043h17.798v-88.043c0-13.545-2.311-25.173-6.931-34.886Z"/><path d="m1357.32,449.145c-5.252,1.89-9.977,3.361-14.176,4.409-4.2,1.052-8.61,1.575-13.229,1.575-15.75,0-23.625-8.505-23.625-25.515v-99.067h50.558v-13.23h-50.558v-42.524h-17.798v42.524h-25.672v13.23h25.672v99.382c0,8.82,1.706,16.223,5.119,22.208,3.411,5.985,8.136,10.501,14.175,13.545,6.037,3.044,12.939,4.567,20.711,4.567,5.459,0,10.762-.709,15.908-2.126,5.143-1.418,10.289-3.28,15.435-5.592l-2.52-13.387Z"/><path d="m499.309,559.016v-55.419h34.8v7.134h-26.534v16.878h24.969v7.134h-24.969v17.053h26.534v7.221h-34.8Z"/><path d="m557.816,559.016l18.967-55.419h10.222l18.401,55.419h-8.7l-4.307-13.224h-21.402l-4.48,13.224h-8.7Zm15.269-19.575h17.27l-8.612-25.882-8.657,25.882Z"/><path d="m619.325,510.73v-7.134h43.674v7.134h-19.574l1.87-1.914v50.199h-8.265v-50.199l1.827,1.914h-19.532Z"/><path d="m686.837,559.016v-55.419h34.8v7.134h-26.535v16.878h24.969v7.134h-24.969v17.053h26.535v7.221h-34.8Z"/><path d="m793.019,559.016l-15.359-22.785c3.537-.688,6.425-2.016,8.638-4.01,3.378-3.045,5.067-7.032,5.067-11.963,0-4.987-1.689-9.011-5.067-12.071-3.379-3.059-8.302-4.589-14.769-4.589h-19.836v55.419h8.266v-22.229h8.925l13.39,22.229h10.744Zm-33.06-48.285h11.57c3.712,0,6.532.921,8.461,2.763s2.893,4.313,2.893,7.416c0,3.017-1.029,5.475-3.088,7.374-2.06,1.899-5.062,2.849-9.005,2.849h-10.831v-20.401Z"/><path d="m839.519,560.146c-3.77,0-7.235-.674-10.396-2.022s-5.705-3.356-7.634-6.024-2.937-6.004-3.023-10.006h8.091c0,2.408.588,4.38,1.762,5.916,1.175,1.538,2.733,2.676,4.677,3.415,1.942.739,4.089,1.109,6.438,1.109,2.378,0,4.48-.362,6.308-1.088,1.827-.725,3.241-1.696,4.241-2.914,1.001-1.218,1.501-2.61,1.501-4.176,0-2.117-.652-3.821-1.957-5.111-1.306-1.29-3.292-2.386-5.96-3.284l-10.31-3.828c-4.437-1.653-7.815-3.56-10.136-5.721-2.32-2.16-3.479-5.169-3.479-9.026,0-4.378,1.711-7.938,5.133-10.679s8.236-4.111,14.442-4.111c5.887,0,10.462,1.364,13.724,4.09,3.263,2.726,5.126,6.438,5.59,11.136h-8.135c-.406-2.378-1.516-4.263-3.327-5.655-1.812-1.392-4.431-2.088-7.852-2.088-3.307,0-5.888.718-7.743,2.153-1.856,1.436-2.784,3.24-2.784,5.416,0,1.798.587,3.233,1.762,4.307,1.175,1.072,3.009,2.044,5.503,2.914l11.745,4.307c4.03,1.421,7.178,3.335,9.439,5.742s3.393,5.467,3.393,9.178c0,3.133-.812,5.902-2.436,8.309-1.625,2.408-4.002,4.3-7.134,5.677-3.133,1.377-6.946,2.066-11.441,2.066Z"/></svg>